<svg width="700" height="300" class="no-border">
      
      <text x="22%" y="30" style="fill:blue;"> viewport: width = 100px, height = 100px</text>
      
      <g>
        <circle r="25" cx="80" cy="100" fill="green"></circle>
        <circle r="25" cx="120" cy="100" fill="yellow"></circle>
        <circle r="25" cx="100" cy="140" fill="darkblue"></circle>              
        <rect x="50" y="70" width="100" height="100" style="stroke: blue; stroke-width: 1px; fill: transparent;" />
        <rect x="51" y="71" width="98" height="98" style="stroke: red; stroke-width: 1px; fill: transparent;" />
        
        <text x="30" y="200" style="fill: red;"> viewBox indefinido ou</text>
        <text x="30" y="220" style="fill: red;"> viewBox="0 0 100 100"</text>
      </g>
      
      <g>
        <circle r="37.5" cx="285" cy="135" fill="green"></circle>
        <circle r="37.5" cx="345" cy="135" fill="yellow"></circle>
        <circle r="37.5" cx="315" cy="195" fill="darkblue"></circle>
        
        <rect x="270" y="70" width="100" height="100" style="stroke: blue; stroke-width: 1px; fill: transparent;" />
        <rect x="240" y="90" width="150" height="150" style="stroke: red; stroke-width: 1px; fill: transparent;" />
        
        <text x="240" y="270" style="fill: red;"> viewBox="30 -20 75 75"</text>
   
      </g>
      
    
      <g>
        <circle r="12.5" cx="535" cy="75" fill="green"></circle>
        <circle r="12.5" cx="555" cy="75" fill="yellow"></circle>
        <circle r="12.5" cx="545" cy="94" fill="darkblue"></circle>
        
        <rect x="490" y="70" width="100" height="100" style="stroke: blue; stroke-width: 1px; fill: transparent;" />
        <rect x="520" y="60" width="50" height="50" style="stroke: red; stroke-width: 1px; fill: transparent;" />
        
        <text x="460" y="200" style="fill: red;"> viewBox="-30 10 150 150"</text>

      </g>

      
    </svg>